<svg width="51" height="32" viewBox="0 0 51 32" fill="none" xmlns="http://www.w3.org/2000/svg">
<path d="M31.0241 27.5809C31.1942 27.5121 31.4427 27.491 31.5343 27.3744C31.6669 27.2612 31.6835 27.0558 31.7785 26.8981C32.0126 26.5451 32.4279 26.4963 32.8089 26.3619C33.19 26.2276 33.7344 26.1067 33.6516 25.6037C33.634 25.3128 33.412 25.0052 33.7113 24.8643C33.7555 24.8265 33.7964 24.8298 33.8372 24.8332C34.1741 24.7366 34.5153 25.0953 34.7948 25.2008C35.0333 25.3029 35.2752 25.364 35.4795 25.3807C35.6838 25.3973 36.0582 25.3452 36.215 25.4407C36.4536 25.5428 36.4237 25.9126 36.6148 26.0936C36.9185 26.4078 37.4154 26.3656 37.7666 26.601C38.0394 26.7887 38.0261 26.953 38.0847 27.2472C38.1774 27.627 38.4634 27.6503 38.8279 27.7214C39.5568 27.8635 40.1654 27.4583 40.7298 27.0909C40.9915 26.9055 41.1815 26.5902 41.4775 26.4903C41.7326 26.387 42.509 26.4504 42.6934 26.7135C42.8061 26.8468 42.7519 27.0078 42.6603 27.1243C42.6128 27.2032 42.5653 27.282 42.5586 27.3642C42.5012 27.5662 42.5255 27.7749 42.5089 27.9803C42.4216 28.5521 41.9037 28.3445 41.4784 28.5165C40.9273 28.7197 40.6545 28.532 40.0858 28.4443C39.4353 28.3498 39.3138 28.8361 39.0321 29.268C38.6588 29.8164 38.1927 29.9852 37.5598 30.1816C37.012 30.3437 36.9281 30.8744 36.4929 31.1697C36.2311 31.3551 36.0301 31.2973 35.8435 31.5716C35.7043 31.767 35.5684 31.9213 35.3166 31.9834C34.8163 32.0667 34.3425 31.8213 33.9505 31.5825C33.7528 31.4837 33.6335 31.4326 33.6159 31.1417C33.5916 30.933 33.6899 30.7343 33.744 30.5733C33.8965 30.2136 34.0721 29.5663 33.7718 29.211C33.4714 28.8557 32.9103 29.182 32.5083 29.0665C32.0655 28.9477 31.7033 28.3393 31.1554 28.5013C30.9445 28.5668 30.8904 28.7278 30.6551 28.5845C30.4608 28.4446 30.4332 28.277 30.4531 28.0305C30.5171 27.7463 30.854 27.6497 31.0241 27.5809Z" fill="#6AA9CC"/>
<path d="M1.94035 18.8926C1.58147 18.2431 1.1784 17.6313 0.367769 17.4824C0.245179 17.4724 0.12259 17.4624 0 17.4524C0.00994903 17.3292 0.0607612 17.2093 0.0707102 17.086C0.158002 16.5143 0.477208 16.1268 0.84391 15.6605C1.06812 15.4307 1.25479 15.1565 1.27801 14.8689C1.31887 14.8723 1.36305 14.8345 1.44478 14.8412C2.35703 14.7502 1.82368 13.7143 1.9651 12.9815C2.16396 12.0467 2.84324 11.2751 3.6252 10.76C4.49885 10.1283 5.90371 9.53997 5.44106 8.13767C5.345 7.79903 5.00045 7.48146 4.86353 7.13949C4.68906 6.7531 4.55877 6.32897 4.38762 5.9015C4.25069 5.55953 4.06628 5.29638 3.97353 4.91666C4.59311 4.88451 5.18178 4.72579 5.70199 4.39608C6.48395 3.88097 7.06492 3.30812 8.02799 3.09724C8.61334 2.97959 9.43392 3.00519 9.99274 3.21619C10.7901 3.52934 11.2374 4.10339 12.1838 4.09791C13.1303 4.09243 13.8714 3.57399 14.8356 3.8594C15.3977 4.02932 15.623 4.2958 16.1951 4.34247C16.5628 4.37248 16.9682 4.4469 17.3426 4.39474C18.2106 4.34152 18.8203 4.4326 19.6651 4.66694C20.51 4.90127 21.9755 5.59974 22.7674 4.96139C23.4743 4.35746 22.9376 3.36262 23.6412 2.79976C24.2564 2.3124 25.6325 2.59007 25.7938 1.61083L25.7971 1.56975C26.1958 1.72633 26.717 1.89291 26.9346 1.74526C27.3665 1.49104 27.1125 0.560613 27.6636 0.357475C27.8746 0.291985 28.1065 0.476308 28.3517 0.496311C28.6786 0.522983 28.852 0.413079 29.1104 0.268764C29.6273 -0.0198672 30.1652 -0.0586857 30.7306 0.0701486C31.0134 0.134566 31.3745 0.24673 31.6031 0.472133C31.8317 0.697535 31.8085 0.985093 31.952 1.24491C32.089 1.58688 32.375 1.61022 32.6003 1.8767C32.7471 2.09543 32.7714 2.30417 32.7924 2.55398C32.8785 3.01586 32.8906 3.8852 33.3268 4.08619C33.5654 4.18836 33.868 4.00629 34.1132 4.0263C34.4401 4.05297 34.6378 4.1518 34.8697 4.33612C35.3744 4.7081 35.6615 5.22773 35.9044 5.7851C36.0446 6.086 36.2191 6.47238 36.451 6.6567C36.7956 6.97427 36.9723 6.82329 37.3842 6.81554C37.7962 6.8078 38.3274 6.85115 38.7294 6.96664C39.0497 7.07547 39.275 7.34196 39.6461 7.33088C40.3474 7.3054 40.533 6.53489 41.2376 6.46832C42.1465 6.41843 42.5595 6.90698 43.2144 7.45661C44.1012 8.19057 44.9516 7.84645 45.9765 7.88872C46.4702 7.88765 47.0081 7.84883 47.441 8.0909C47.833 8.32964 48.0583 8.59612 48.5012 8.71495C49.3052 8.94595 50.8038 9.23362 50.5067 10.3672C50.4393 10.6925 50.2559 10.9256 50.2261 11.2953C50.1664 12.0348 50.5628 12.7287 50.7516 13.4471C50.8753 13.9534 50.9989 14.4597 51 14.956C50.9911 15.5755 50.6101 15.7098 50.0998 15.9163C48.9159 16.3159 47.024 16.8231 46.8604 18.3398C46.8206 18.8327 46.9741 18.9693 46.6107 19.3945C46.5224 19.47 46.4749 19.5488 46.3865 19.6243C45.9856 20.0051 45.4786 20.1705 45.0026 20.4625C44.7442 20.6068 43.643 21.5093 43.4685 21.1229C42.4944 20.9608 42.1222 22.0055 41.4385 22.3219C40.9691 22.5317 40.2844 22.3518 39.8492 22.6471C39.6316 22.7947 39.6592 22.9624 39.4825 23.1134C39.2583 23.3432 39.3091 23.2233 39.0164 23.2821C38.4311 23.3997 38.3736 23.6018 38.0445 24.1125C37.8037 24.5477 37.416 24.7642 36.9223 24.7652C36.1393 24.7841 35.3011 24.4676 34.549 24.613C34.2563 24.6718 34.0796 24.8228 33.9029 24.9737C33.7703 25.087 33.682 25.1625 33.5494 25.2757C33.1993 25.5366 32.7531 25.4588 32.3036 25.4222C31.3229 25.3422 30.0605 25.694 29.0655 25.282C28.8678 25.1832 28.6359 24.9989 28.6149 24.7491C28.594 24.4993 28.7574 24.5126 28.9374 24.3205C29.3892 23.8198 29.2114 23.4745 28.6625 23.1403C28.2738 22.8605 27.8685 22.7861 27.4742 23.0847C27.1682 23.3078 26.9042 24.0306 26.4371 23.703C26.0859 23.4676 26.1335 21.8588 25.5702 22.7226C25.2852 23.1955 25.0554 24.0038 25.1758 24.5512C25.2277 24.9276 25.549 25.5327 25.1171 25.7869C24.6886 26 24.2822 25.4293 23.8261 25.4748C23.6637 25.9578 23.7565 26.3375 23.8017 26.796C23.837 27.3778 23.5344 27.5599 22.9799 27.8041C22.6398 27.9418 22.177 28.0694 22.2631 28.5313C22.325 28.7844 22.601 28.931 22.5778 29.2186C22.5613 29.424 22.4663 29.5816 22.3337 29.6948C21.9031 28.9154 21.1344 29.2662 20.3657 29.617C19.597 29.9678 18.9431 29.9144 18.5301 29.4259C18.5909 29.1827 18.655 28.8985 18.7908 28.7442C19.0824 28.1891 19.606 27.8183 20.0135 27.3553C20.2444 27.0434 20.4343 26.7281 20.4266 26.3139C20.4499 26.0264 20.2754 25.64 20.2953 25.3935C20.3693 24.986 20.4278 25.2803 20.673 25.3003C20.9591 25.3236 21.0949 25.1693 21.3467 25.1071C21.6803 25.0516 22.164 25.1738 22.4909 25.2005C23.063 25.2472 23.2706 25.2227 23.1569 24.5932C23.1083 24.1757 23.0255 23.6728 22.6744 23.4374C22.3232 23.202 21.8328 23.162 21.6208 22.7312C21.4088 22.3004 21.6938 21.8274 21.4376 21.4344C21.1405 21.038 20.6811 21.1245 20.5198 20.5738C20.2902 19.8521 20.7618 19.105 20.1003 18.6375C19.3604 18.1223 18.5917 18.4731 17.7877 18.2421C17.103 18.0621 16.6281 17.3204 15.9025 17.1372C15.4972 17.0628 15.1979 17.2038 14.8202 17.297C14.4425 17.3902 14.1156 17.3636 13.7069 17.3302C13.0123 17.2735 12.9416 17.6399 12.8675 18.0474C12.2137 17.994 11.7653 18.4537 11.2385 18.8655C10.5857 19.3085 9.72865 19.7348 8.97321 19.9212C7.96596 20.1699 7.76721 19.5747 6.92567 19.2993C6.32267 19.1261 5.49545 19.1826 4.84496 19.0882C4.23864 18.956 3.58152 18.9438 2.96857 18.8938C2.72339 18.8738 2.32139 18.7583 2.06958 18.8204C2.0254 18.8582 1.98453 18.8548 1.94035 18.8926Z" fill="#6AA9CC"/>
</svg>
