<svg width="7" height="10" viewBox="0 0 7 10" fill="none" xmlns="http://www.w3.org/2000/svg">
<path d="M3.54 9.12C2.564 9.12 1.832 8.904 1.344 8.472C0.864 8.04 0.624 7.444 0.624 6.684C0.624 6.444 0.652 6.228 0.708 6.036H0.12V5.148H1.164C1.308 4.98 1.48 4.824 1.68 4.68C1.88 4.536 2.104 4.404 2.352 4.284H0.12V3.396H4.128C4.336 3.204 4.44 2.952 4.44 2.64C4.44 2.384 4.344 2.184 4.152 2.04C3.968 1.896 3.7 1.824 3.348 1.824C3.028 1.824 2.704 1.868 2.376 1.956C2.056 2.044 1.696 2.168 1.296 2.328L0.756 0.912C1.172 0.728 1.604 0.584 2.052 0.48C2.508 0.368 2.988 0.312 3.492 0.312C4.324 0.312 4.984 0.516 5.472 0.924C5.968 1.324 6.216 1.908 6.216 2.676C6.216 2.924 6.184 3.164 6.12 3.396H6.732V4.284H5.616C5.44 4.484 5.232 4.652 4.992 4.788C4.752 4.916 4.504 5.036 4.248 5.148H6.732V6.036H2.628C2.476 6.212 2.4 6.428 2.4 6.684C2.4 6.98 2.504 7.212 2.712 7.38C2.92 7.54 3.232 7.62 3.648 7.62C4.08 7.62 4.504 7.572 4.92 7.476C5.336 7.372 5.752 7.236 6.168 7.068V8.58C5.824 8.748 5.428 8.88 4.98 8.976C4.532 9.072 4.052 9.12 3.54 9.12Z" fill="#A5A5A5"/>
</svg>
