<svg width="218" height="36" viewBox="0 0 218 36" fill="none" xmlns="http://www.w3.org/2000/svg">
<circle cx="15.8392" cy="15.8392" r="10.2" transform="rotate(-45 15.8392 15.8392)" stroke="#1D2023" stroke-width="2"/>
<path d="M27.7186 27.7187L22.7688 22.7689" stroke="#1D2023" stroke-width="2"/>
<mask id="path-5-outside-1" maskUnits="userSpaceOnUse" x="128.638" y="18.5" width="13" height="8" fill="black">
<rect fill="white" x="128.638" y="18.5" width="13" height="8"/>
<path fill-rule="evenodd" clip-rule="evenodd" d="M131.638 20.5C131.832 22.2538 133.319 23.6179 135.124 23.6179C136.93 23.6179 138.417 22.2538 138.611 20.5H131.638Z"/>
</mask>
<path d="M131.638 20.5V18.5H129.405L129.65 20.7197L131.638 20.5ZM138.611 20.5L140.599 20.7197L140.844 18.5H138.611V20.5ZM135.124 21.6179C134.35 21.6179 133.709 21.032 133.626 20.2803L129.65 20.7197C129.955 23.4757 132.288 25.6179 135.124 25.6179V21.6179ZM136.623 20.2803C136.54 21.032 135.899 21.6179 135.124 21.6179V25.6179C137.961 25.6179 140.294 23.4757 140.599 20.7197L136.623 20.2803ZM138.611 18.5H131.638V22.5H138.611V18.5Z" fill="black" mask="url(#path-5-outside-1)"/>
<mask id="path-7-outside-2" maskUnits="userSpaceOnUse" x="145.611" y="18.5" width="13" height="8" fill="black">
<rect fill="white" x="145.611" y="18.5" width="13" height="8"/>
<path fill-rule="evenodd" clip-rule="evenodd" d="M148.611 20.5C148.805 22.2538 150.291 23.6179 152.097 23.6179C153.902 23.6179 155.389 22.2538 155.583 20.5H148.611Z"/>
</mask>
<path d="M148.611 20.5V18.5H146.377L146.623 20.7197L148.611 20.5ZM155.583 20.5L157.571 20.7197L157.817 18.5H155.583V20.5ZM152.097 21.6179C151.322 21.6179 150.682 21.032 150.599 20.2803L146.623 20.7197C146.927 23.4757 149.261 25.6179 152.097 25.6179V21.6179ZM153.595 20.2803C153.512 21.032 152.872 21.6179 152.097 21.6179V25.6179C154.933 25.6179 157.266 23.4757 157.571 20.7197L153.595 20.2803ZM155.583 18.5H148.611V22.5H155.583V18.5Z" fill="black" mask="url(#path-7-outside-2)"/>
<path d="M143.611 7V28M134.611 15.5V11.5H152.611V15.5" stroke="#1D2023" stroke-width="2"/>
<path d="M69.6382 12.8571L83.6382 27L97.6382 12.8571L93.82 9H87.4564L83.6382 12.8571L79.82 9H73.4564L69.6382 12.8571Z" stroke="#1D2023" stroke-width="2"/>
<path d="M196.686 22.5686L195.17 10.8431H216.265L212.982 22.5686H196.686Z" stroke="#1D2023" stroke-width="2"/>
<path d="M196.721 22.4706L194.524 6H189.583" stroke="#1D2023" stroke-width="2"/>
<circle cx="200.015" cy="26.8627" r="2.19608" fill="#1D2023"/>
<circle cx="209.897" cy="26.8627" r="2.19608" fill="#1D2023"/>
</svg>
